
<svg width="360px" height="32px" viewBox="0 0 360 32" version="1.1" xmlns="http://www.w3.org/2000/svg" xmlns:xlink="http://www.w3.org/1999/xlink">
    <!-- Generator: Sketch 49 (51002) - http://www.bohemiancoding.com/sketch -->
    <desc>Created with Sketch.</desc>
    <defs>
        <filter x="-4.2%" y="-1.4%" width="108.3%" height="102.8%" filterUnits="objectBoundingBox" id="filter-1">
            <feOffset dx="0" dy="2" in="SourceAlpha" result="shadowOffsetOuter1"></feOffset>
            <feGaussianBlur stdDeviation="2" in="shadowOffsetOuter1" result="shadowBlurOuter1"></feGaussianBlur>
            <feColorMatrix values="0 0 0 0 .5   0 0 0 0 .01   0 0 0 0 1  0 0 0 0.01 0.01" type="matrix" in="shadowBlurOuter1" result="shadowMatrixOuter1"></feColorMatrix>
            <feMerge>
                <feMergeNode in="shadowMatrixOuter1"></feMergeNode>
                <feMergeNode in="SourceGraphic"></feMergeNode>
            </feMerge>
        </filter>
        <linearGradient x1="50%" y1="0%" x2="50%" y2="100%" id="linearGradient-2">
            <stop stop-color="#005CCB" offset="0%"></stop>
            <stop stop-color="#000000" stop-opacity="0.5" offset="100%"></stop>
        </linearGradient>
    </defs>
    <g id="Page-1" stroke="none" stroke-width="1" fill="none" fill-rule="evenodd">
        <g id="BusyBus---Material-design---New-colors">
            <g id="Group-8">
                <g id="Nav-stuff" filter="url(#filter-1)">
                    <g id="status-bar">
                        <g id="status-bar-contents">
                            <rect id="status-bar-bg" fill-opacity="0.5" fill="url(#linearGradient-2)" x="0" y="0" width="360" height="26"></rect>
                            <g id="time" opacity="0.9" transform="translate(316.000000, 5.000000)" fill="#FFFFFF" font-family="Roboto-Medium, Roboto" font-size="14" font-weight="400">
                                <text id="12:30">
                                    <tspan x="0.459960938" y="13">12:30</tspan>
                                </text>
                            </g>
                            <g id="battery" transform="translate(297.000000, 5.000000)">
                                <polygon id="bounds" points="0 0 16 0 16 16 0 16"></polygon>
                                <polygon id="Shape" fill="#FFFFFF" points="9 1.875 9 1 6 1 6 1.875 3 1.875 3 15 12 15 12 1.875"></polygon>
                            </g>
                            <g id="cellular" transform="translate(277.000000, 5.000000)">
                                <polygon id="bounds" points="0 0 16 0 16 16 0 16"></polygon>
                                <polygon id="Shape" fill="#FFFFFF" points="0 15 14 15 14 1"></polygon>
                            </g>
                            <g id="wifi" transform="translate(256.000000, 5.000000)">
                                <polygon id="bounds" points="2 0 18 0 18 16 2 16"></polygon>
                                <path d="M0.977372085,4.01593123 C3.48821908,2.12256382 6.61301513,1 10,1 C13.3869849,1 16.5117809,2.12256382 19.0226279,4.01593123 L10,15 L0.977372085,4.01593123 Z" id="Shape" fill="#FFFFFF"></path>
                            </g>
                        </g>
                    </g>
                </g>
            </g>
        </g>
    </g>
</svg>
